<svg xmlns="http://www.w3.org/2000/svg" xmlns:xlink="http://www.w3.org/1999/xlink" version="1.1" x="0px" y="0px" viewBox="0 0 100 125" enable-background="new 0 0 100 100" xml:space="preserve"><g><rect x="29.345" y="47.36" transform="matrix(0.7071 0.7071 -0.7071 0.7071 48.0185 -11.1057)" width="16.139" height="10.102"/><path d="M89.23,76.358c-3.574-4.658-5.395-7.166-5.395-7.166l3.188-3.188c0.469-0.469,0.732-1.104,0.732-1.768   c0-0.662-0.264-1.299-0.732-1.768L72.611,48.058l-4.955,4.957l-2.496-2.496l4.914-4.997l-2.611-2.611   c-0.139-0.139-0.295-0.253-0.459-0.354c-1.467-1.072-3.529-0.959-4.855,0.366l-2.293,2.293L44.492,29.851l1.785-1.785   c0.977-0.977,0.977-2.56,0-3.536c-0.975-0.977-2.559-0.977-3.535,0l-8.529,8.53l-0.16-7.841c-0.035-2.071-1.742-3.721-3.814-3.686   c-2.068,0.035-3.721,1.742-3.684,3.813l0.289,15.082l-4.277,4.277l3.535,3.535l14.855-14.855l2.035,2.035l-5.795,5.795   l11.412,11.412l5.795-5.795l1.916,1.917L38.916,66.155L20.768,48.009c-1.465-1.465-3.838-1.465-5.303,0l-3.939,3.939   c-1.465,1.465-1.465,3.838,0,5.303s3.838,1.465,5.305,0l1.287-1.287L36.264,74.11c0.703,0.703,1.658,1.098,2.652,1.098   s1.949-0.395,2.652-1.098l20.055-20.057l2.498,2.496l-4.889,4.887l14.41,14.412c0.471,0.469,1.105,0.732,1.77,0.732   c0.662,0,1.299-0.264,1.768-0.732l3.119-3.121c0,0,3.453,2.521,7.164,5.398c0.545,0.422,1.279,0.488,1.768,0   S89.652,76.905,89.23,76.358z"/></g></svg>