<svg xmlns="http://www.w3.org/2000/svg" xmlns:xlink="http://www.w3.org/1999/xlink" version="1.1" x="0px" y="0px" viewBox="0 0 100 125" enable-background="new 0 0 100 100" xml:space="preserve"><path d="M71.54,10.617c1.275,0,2.318-1.045,2.318-2.32V8.103c0-1.275-1.043-2.319-2.318-2.319H45.477  c-0.886,0-1.636,0.521-2.026,1.255h-0.71c-0.178-1.186-0.616-2.028-1.129-2.028c-0.164,0-0.322,0.09-0.465,0.248V5.255  c-0.74,0.754-1.458,0.035-1.484,0.007c0,0-0.001-0.002-0.003-0.002c0-0.001-0.006-0.005-0.006-0.005v0  c-0.144-0.155-0.3-0.245-0.463-0.245c-0.669,0-1.214,1.427-1.214,3.189c0,1.76,0.545,3.19,1.214,3.19  c0.018,0,0.034-0.012,0.05-0.014v12.097c-0.936,0.105-1.595,0.327-1.595,0.588l0.001,0.001h-0.001v7.919  c-0.694,0.138-1.27,0.561-1.593,1.168h-2.466c-0.117-1.574-0.461-2.723-0.873-2.723h-5.652c-0.509,0-0.92,1.737-0.92,3.881  c0,2.143,0.411,3.884,0.92,3.884h5.652c0.412,0,0.755-1.149,0.873-2.721h2.463v4.675c-3.032,0.743-5.124,2.215-5.124,3.931v32.298  c0,1.869,2.453,3.459,5.924,4.121c0.026,0.361,0.213,0.762,0.666,1.197c3.095,2.981,0.032,4.591,0.032,4.591l2.998,8.704  c0,0,3.433-7.396,3.433-8.414c0-0.72,0-4.161,0-6.082c3.458-0.662,5.9-2.252,5.9-4.117V44.078c0-1.716-2.093-3.188-5.125-3.931  v-3.419H71.54c1.275,0,2.318-1.045,2.318-2.322v-0.192c0-1.275-1.043-2.321-2.318-2.321h-0.919V10.617H71.54z M43.158,31.893v-7.831  h-0.001l0.001-0.001c0-0.261-0.658-0.482-1.596-0.588V11.376c0.017,0.002,0.034,0.014,0.05,0.014c0.513,0,0.951-0.844,1.129-2.029  h0.71c0.39,0.735,1.14,1.256,2.026,1.256v21.275H43.158z M59.208,31.893h-2.32V10.617h2.32V31.893z"/></svg>